<?xml version="1.0" encoding="UTF-8"?>
<svg id="Layer_1" data-name="Layer 1" xmlns="http://www.w3.org/2000/svg" xmlns:xlink="http://www.w3.org/1999/xlink" viewBox="8 8 64 64">
  <defs>
    <style>
      .cls-1 {
        fill: url(#linear-gradient);
      }
    </style>
    <linearGradient id="linear-gradient" x1="33.59" y1="34.68" x2="48.81" y2="49.9" gradientUnits="userSpaceOnUse">
      <stop offset="0" stop-color="#b3ced2"/>
      <stop offset="1" stop-color="#80adb4"/>
    </linearGradient>
  </defs>
  <path class="cls-1" d="M40.74,27.8c-.12.12-.11.38.08.71.83,1.44,1.31,3.1,1.31,4.88,0,5.42-4.4,9.82-9.82,9.82-1.75,0-3.39-.46-4.81-1.27-.36-.2-.58-.38-.81-.26-.19.12-.17.35-.11.72.9,6.31,6.32,11.16,12.88,11.16,7.19,0,13.03-5.83,13.03-13.03,0-6.53-4.81-11.93-11.08-12.87-.4-.06-.55-.04-.66.12Z"/>
</svg>