<?xml version="1.0" encoding="UTF-8"?>
<svg id="Layer_1" data-name="Layer 1" xmlns="http://www.w3.org/2000/svg" xmlns:xlink="http://www.w3.org/1999/xlink" viewBox="8 8 64 64">
  <defs>
    <style>
      .cls-1 {
        fill: url(#linear-gradient-2);
      }

      .cls-2 {
        fill: #fff;
      }

      .cls-3 {
        fill: url(#linear-gradient);
      }
    </style>
    <linearGradient id="linear-gradient" x1="19.91" y1="52.11" x2="60.08" y2="52.11" gradientUnits="userSpaceOnUse">
      <stop offset="0" stop-color="#aaa"/>
      <stop offset="1" stop-color="#7f7f7f"/>
    </linearGradient>
    <linearGradient id="linear-gradient-2" y1="28.48" y2="28.48" xlink:href="#linear-gradient"/>
  </defs>
  <g>
    <path class="cls-2" d="M30.49,38.25h4.25v1.64h-4.25v3.89h-1.98v-9.51h6.73v1.66h-4.75v2.32Z"/>
    <path class="cls-2" d="M43.03,40.27c0,.58-.1,1.1-.29,1.55-.2.45-.46.83-.78,1.13-.33.31-.7.54-1.13.7s-.88.24-1.35.24h-.04c-.47,0-.92-.08-1.35-.24-.43-.16-.81-.39-1.13-.7-.33-.31-.59-.68-.78-1.13-.2-.45-.29-.97-.29-1.55s.1-1.09.29-1.54c.2-.45.46-.83.78-1.14.32-.31.7-.55,1.13-.7.43-.16.88-.24,1.35-.24h.04c.47,0,.92.08,1.35.24.43.16.81.39,1.13.7.33.31.59.69.78,1.14.2.45.29.96.29,1.54ZM41.13,40.27c0-1.25-.55-1.88-1.66-1.88h-.04c-1.11,0-1.66.63-1.66,1.88s.55,1.89,1.66,1.89h.04c1.11,0,1.66-.63,1.66-1.89Z"/>
    <path class="cls-2" d="M49.18,37.23c.26-.25.5-.43.73-.55s.44-.17.63-.17c.16,0,.33.02.49.05.17.03.32.1.45.21v1.05l-1.29.22c-.08.02-.12.04-.14.06s0,.07.03.14c.19.36.29.77.29,1.21,0,.41-.08.79-.24,1.13-.16.34-.39.64-.67.88-.28.24-.61.43-.99.57-.38.13-.79.2-1.23.2-.13,0-.29-.01-.46-.04s-.31-.05-.42-.07c-.08-.02-.13-.02-.15,0-.02.02-.05.06-.06.11l-.09.2c-.04.09-.06.15-.06.2,0,.09.07.13.2.13h2.05c.9,0,1.56.17,1.98.51.42.34.63.83.63,1.47,0,.4-.09.77-.28,1.09-.19.33-.44.6-.77.83s-.72.41-1.17.53c-.45.12-.94.19-1.46.19s-1.01-.06-1.45-.17c-.44-.11-.82-.28-1.13-.49-.32-.21-.56-.46-.74-.74-.18-.28-.27-.59-.27-.93,0-.31.08-.56.24-.77.16-.21.38-.4.65-.56-.09-.11-.16-.21-.21-.31-.05-.1-.08-.22-.08-.35,0-.14.04-.29.11-.44s.2-.33.38-.54l.46-.53c-.33-.25-.58-.55-.76-.9-.18-.35-.27-.76-.27-1.21,0-.41.08-.79.24-1.13.16-.34.38-.63.66-.88.28-.24.61-.44.99-.57.38-.14.79-.21,1.23-.21.75,0,1.39.19,1.94.57ZM45.81,44.23c-.08,0-.14,0-.19.03-.05.02-.1.06-.14.11-.09.11-.13.25-.13.4,0,.31.15.56.46.75.31.2.77.29,1.41.29.57,0,1.04-.09,1.38-.27.35-.18.52-.44.52-.78,0-.19-.06-.33-.18-.42-.12-.09-.35-.13-.68-.13h-2.45ZM48.64,39.44c0-.42-.13-.74-.38-.95-.25-.22-.59-.32-1.01-.32s-.77.11-1.02.32c-.25.22-.37.53-.37.95s.12.75.37.97c.25.22.59.32,1.02.32s.76-.11,1.01-.32c.25-.22.38-.54.38-.97Z"/>
  </g>
  <rect class="cls-3" x="19.91" y="50.8" width="40.17" height="2.62" rx=".68" ry=".68"/>
  <rect class="cls-1" x="19.91" y="27.17" width="40.17" height="2.62" rx=".68" ry=".68"/>
</svg>